<svg width="149" height="50" viewBox="0 0 149 50" fill="none" xmlns="http://www.w3.org/2000/svg">
<path d="M17.0312 22.8828C16.5703 22.9219 16.1484 22.9648 15.7656 23.0117C15.3828 23.0508 15.0156 23.0938 14.6641 23.1406V35C15.1797 35.0703 15.75 35.1328 16.375 35.1875C17 35.2422 17.6797 35.2812 18.4141 35.3047C18.6484 35.3203 18.8789 35.3281 19.1055 35.3281C19.332 35.3281 19.5625 35.3281 19.7969 35.3281C20.0312 35.3281 20.2656 35.3281 20.5 35.3281C20.7344 35.3281 20.9688 35.3203 21.2031 35.3047C22.0781 35.2812 22.8555 35.2383 23.5352 35.1758C24.2227 35.1055 24.8438 35.0156 25.3984 34.9062C25.5391 34.1328 25.6562 33.1953 25.75 32.0938H28.4219C28.375 32.9297 28.3086 33.7852 28.2227 34.6602C28.1367 35.5273 28.0156 36.4219 27.8594 37.3438C26.375 37.5938 24.9609 37.7617 23.6172 37.8477C22.2812 37.9336 21.0234 37.9766 19.8438 37.9766C18.6328 37.9766 17.3516 37.9336 16 37.8477C14.6484 37.7617 13.2422 37.5938 11.7812 37.3438V20.7734C12.7109 20.6094 13.6094 20.4883 14.4766 20.4102C15.3516 20.3242 16.2031 20.2578 17.0312 20.2109V22.8828ZM33.25 33.7578C33.25 34.1172 33.3789 34.418 33.6367 34.6602C33.9023 34.9023 34.2539 35.1016 34.6914 35.2578C35.1367 35.4062 35.6484 35.5156 36.2266 35.5859C36.8047 35.6484 37.4062 35.6797 38.0312 35.6797C38.6875 35.6797 39.3047 35.6445 39.8828 35.5742C40.4609 35.4961 40.9648 35.3828 41.3945 35.2344C41.8242 35.0781 42.1641 34.8789 42.4141 34.6367C42.6641 34.3945 42.7891 34.1016 42.7891 33.7578V24.6406L45.9062 24.875V34.5078C45.9062 34.9297 45.8008 35.3164 45.5898 35.668C45.3867 36.0195 45.1016 36.3359 44.7344 36.6172C44.3672 36.8906 43.9336 37.1289 43.4336 37.332C42.9336 37.5352 42.3906 37.7031 41.8047 37.8359C41.2266 37.9688 40.6133 38.0664 39.9648 38.1289C39.3242 38.1992 38.6797 38.2344 38.0312 38.2344C37.375 38.2344 36.7266 38.1992 36.0859 38.1289C35.4453 38.0664 34.832 37.9688 34.2461 37.8359C33.668 37.7031 33.1289 37.5352 32.6289 37.332C32.1289 37.1289 31.6953 36.8906 31.3281 36.6172C30.9609 36.3359 30.6719 36.0234 30.4609 35.6797C30.2578 35.3281 30.1562 34.9375 30.1562 34.5078V24.875L33.25 24.6406V33.7578ZM109.422 24.6406C109.82 24.6406 110.301 24.6602 110.863 24.6992C111.426 24.7383 112.008 24.8086 112.609 24.9102C113.219 25.0039 113.82 25.1406 114.414 25.3203C115.008 25.4922 115.539 25.7148 116.008 25.9883C116.484 26.2617 116.867 26.5938 117.156 26.9844C117.453 27.3672 117.602 27.8203 117.602 28.3438V32.3047H104.172V35.3047C105.117 35.4375 106.027 35.5312 106.902 35.5859C107.777 35.6328 108.617 35.6562 109.422 35.6562C110.648 35.6562 111.758 35.6094 112.75 35.5156C113.75 35.4219 114.613 35.3164 115.34 35.1992C116.176 35.0664 116.93 34.9141 117.602 34.7422V37.3438C116.117 37.5781 114.684 37.7461 113.301 37.8477C111.926 37.9492 110.633 38 109.422 38C108.203 38 107.098 37.9688 106.105 37.9062C105.113 37.8359 104.262 37.7578 103.551 37.6719C102.723 37.5781 101.977 37.4688 101.312 37.3438V28.3438C101.312 27.8203 101.441 27.3672 101.699 26.9844C101.957 26.5938 102.301 26.2617 102.73 25.9883C103.16 25.7148 103.652 25.4922 104.207 25.3203C104.77 25.1406 105.352 25.0039 105.953 24.9102C106.555 24.8086 107.152 24.7383 107.746 24.6992C108.348 24.6602 108.906 24.6406 109.422 24.6406ZM104.172 30.4297H114.695V29.0703C114.695 28.75 114.617 28.4766 114.461 28.25C114.305 28.0156 114.094 27.8203 113.828 27.6641C113.57 27.5078 113.266 27.3828 112.914 27.2891C112.57 27.1875 112.211 27.1133 111.836 27.0664C111.461 27.0117 111.082 26.9766 110.699 26.9609C110.324 26.9453 109.969 26.9375 109.633 26.9375C109.281 26.9375 108.902 26.9453 108.496 26.9609C108.098 26.9766 107.695 27.0117 107.289 27.0664C106.883 27.1211 106.492 27.1992 106.117 27.3008C105.742 27.3945 105.41 27.5234 105.121 27.6875C104.832 27.8438 104.602 28.0391 104.43 28.2734C104.258 28.5 104.172 28.7734 104.172 29.0938V30.4297ZM121.586 28.3203C121.555 28.0703 121.48 27.8594 121.363 27.6875C121.254 27.5156 121.133 27.375 121 27.2656C120.852 27.1328 120.688 27.0234 120.508 26.9375L121.82 24.6406C122.109 24.7422 122.398 24.8789 122.688 25.0508C122.93 25.1992 123.184 25.3906 123.449 25.625C123.723 25.8516 123.961 26.1328 124.164 26.4688C124.555 26.2188 124.953 25.9844 125.359 25.7656C125.773 25.5391 126.203 25.3438 126.648 25.1797C127.102 25.0156 127.574 24.8867 128.066 24.793C128.566 24.6914 129.102 24.6406 129.672 24.6406C130.875 24.6406 131.906 24.7422 132.766 24.9453C133.633 25.1406 134.34 25.4375 134.887 25.8359C135.441 26.2266 135.848 26.7148 136.105 27.3008C136.363 27.8867 136.492 28.5703 136.492 29.3516V38H133.422V30.0781C133.422 29.6406 133.363 29.2656 133.246 28.9531C133.129 28.6328 132.969 28.3633 132.766 28.1445C132.57 27.918 132.34 27.7344 132.074 27.5938C131.809 27.4531 131.531 27.3477 131.242 27.2773C130.961 27.1992 130.672 27.1484 130.375 27.125C130.078 27.0938 129.797 27.0781 129.531 27.0781C129.031 27.0781 128.555 27.1133 128.102 27.1836C127.648 27.2539 127.219 27.3516 126.812 27.4766C126.406 27.5938 126.023 27.7344 125.664 27.8984C125.305 28.0625 124.969 28.2344 124.656 28.4141V38H121.586V28.3203Z" fill="white"/>
<path d="M57.25 24.4297C57.8984 24.4297 58.5508 24.4609 59.207 24.5234C59.8633 24.5859 60.4922 24.6875 61.0938 24.8281C61.6953 24.9688 62.2578 25.1445 62.7812 25.3555C63.3047 25.5664 63.7578 25.8203 64.1406 26.1172C64.5312 26.4141 64.8359 26.7578 65.0547 27.1484C65.2734 27.5312 65.3828 27.9609 65.3828 28.4375L62.3828 28.8828C62.3828 28.5469 62.2383 28.2461 61.9492 27.9805C61.6602 27.707 61.2773 27.4805 60.8008 27.3008C60.3242 27.1133 59.7773 26.9727 59.1602 26.8789C58.543 26.7773 57.9062 26.7266 57.25 26.7266C56.625 26.7266 56.0078 26.7734 55.3984 26.8672C54.7891 26.9531 54.2422 27.0859 53.7578 27.2656C53.2812 27.4453 52.8906 27.6719 52.5859 27.9453C52.2891 28.2109 52.1406 28.5234 52.1406 28.8828V33.7578C52.1406 34.1172 52.2891 34.4297 52.5859 34.6953C52.8906 34.9531 53.2812 35.1719 53.7578 35.3516C54.2422 35.5234 54.7891 35.6523 55.3984 35.7383C56.0078 35.8242 56.625 35.8672 57.25 35.8672C57.9062 35.8672 58.543 35.8203 59.1602 35.7266C59.7773 35.6328 60.3242 35.5 60.8008 35.3281C61.2773 35.1484 61.6602 34.9297 61.9492 34.6719C62.2383 34.4062 62.3828 34.1016 62.3828 33.7578L65.3828 34.5078C65.3828 34.9297 65.2734 35.3164 65.0547 35.668C64.8359 36.0195 64.5312 36.3359 64.1406 36.6172C63.7578 36.8906 63.3047 37.1289 62.7812 37.332C62.2578 37.5352 61.6953 37.7031 61.0938 37.8359C60.4922 37.9688 59.8633 38.0664 59.207 38.1289C58.5508 38.1992 57.8984 38.2344 57.25 38.2344C56.6016 38.2344 55.9492 38.1992 55.293 38.1289C54.6445 38.0664 54.0195 37.9688 53.418 37.8359C52.8164 37.7031 52.2539 37.5352 51.7305 37.332C51.2148 37.1289 50.7617 36.8906 50.3711 36.6172C49.9883 36.3359 49.6875 36.0234 49.4688 35.6797C49.25 35.3281 49.1406 34.9375 49.1406 34.5078V28.4375C49.1406 27.9609 49.25 27.5312 49.4688 27.1484C49.6875 26.7578 49.9883 26.4141 50.3711 26.1172C50.7617 25.8203 51.2148 25.5664 51.7305 25.3555C52.2539 25.1445 52.8164 24.9688 53.418 24.8281C54.0195 24.6875 54.6445 24.5859 55.293 24.5234C55.9492 24.4609 56.6016 24.4297 57.25 24.4297ZM81.3906 33.2188C81.1953 33.0469 80.9531 32.8789 80.6641 32.7148C80.375 32.5508 80.0195 32.4062 79.5977 32.2812C79.1758 32.1484 78.6719 32.043 78.0859 31.9648C77.5078 31.8789 76.8281 31.8359 76.0469 31.8359C75.3516 31.8359 74.6914 31.8516 74.0664 31.8828C73.4492 31.9062 72.9062 31.9844 72.4375 32.1172C71.9688 32.2422 71.5977 32.4453 71.3242 32.7266C71.0508 33.0078 70.9141 33.3984 70.9141 33.8984V35.3984C71.6016 35.5078 72.3594 35.5977 73.1875 35.668C74.0156 35.7383 74.9375 35.7734 75.9531 35.7734C76.7656 35.7734 77.6289 35.7461 78.543 35.6914C79.4648 35.6289 80.4141 35.5078 81.3906 35.3281V33.2188ZM76.1172 24.6406C76.5078 24.6406 76.9805 24.6602 77.5352 24.6992C78.0898 24.7383 78.668 24.8086 79.2695 24.9102C79.8711 25.0039 80.4648 25.1367 81.0508 25.3086C81.6445 25.4727 82.1758 25.6914 82.6445 25.9648C83.1211 26.2305 83.5039 26.5508 83.793 26.9258C84.082 27.3008 84.2266 27.7422 84.2266 28.25V37.3203C83.5703 37.4531 82.8281 37.5664 82 37.6602C81.2891 37.7461 80.4414 37.8242 79.457 37.8945C78.4727 37.9648 77.375 38 76.1641 38C74.9609 38 73.6797 37.9492 72.3203 37.8477C70.9688 37.7461 69.5547 37.5703 68.0781 37.3203V33.1016C68.0781 32.6484 68.1836 32.2539 68.3945 31.918C68.6133 31.5742 68.9102 31.2812 69.2852 31.0391C69.6602 30.7969 70.1016 30.5977 70.6094 30.4414C71.1172 30.2852 71.6641 30.1602 72.25 30.0664C72.8359 29.9727 73.4453 29.9102 74.0781 29.8789C74.7109 29.8398 75.3438 29.8203 75.9766 29.8203C76.9375 29.8203 77.7539 29.8828 78.4258 30.0078C79.1055 30.125 79.668 30.2539 80.1133 30.3945C80.6289 30.5664 81.0547 30.7578 81.3906 30.9688V29.0703C81.3906 28.75 81.3125 28.4766 81.1562 28.25C81 28.0156 80.7891 27.8203 80.5234 27.6641C80.2578 27.5 79.9531 27.3711 79.6094 27.2773C79.2656 27.1758 78.9062 27.0977 78.5312 27.043C78.1562 26.9883 77.7734 26.9531 77.3828 26.9375C77 26.9219 76.6406 26.9141 76.3047 26.9141C75.9531 26.9141 75.5781 26.9258 75.1797 26.9492C74.7812 26.9648 74.3828 27 73.9844 27.0547C73.5938 27.1094 73.2148 27.1875 72.8477 27.2891C72.4883 27.3828 72.168 27.5117 71.8867 27.6758C71.6055 27.8398 71.3789 28.0391 71.207 28.2734C71.043 28.5 70.9609 28.7734 70.9609 29.0938L68.0547 28.3438C68.0547 27.8203 68.1836 27.3672 68.4414 26.9844C68.6992 26.5938 69.0391 26.2617 69.4609 25.9883C69.8906 25.7148 70.3828 25.4922 70.9375 25.3203C71.4922 25.1406 72.0664 25.0039 72.6602 24.9102C73.2617 24.8086 73.8594 24.7383 74.4531 24.6992C75.0469 24.6602 75.6016 24.6406 76.1172 24.6406ZM98.3125 24.6406C98.3125 25.4531 98.2852 26.3008 98.2305 27.1836C98.1758 28.0586 98.0703 28.9609 97.9141 29.8906H95.0781C95.1484 29.625 95.2148 29.3359 95.2773 29.0234C95.3242 28.7578 95.3672 28.4492 95.4062 28.0977C95.4531 27.7383 95.4766 27.3594 95.4766 26.9609C94.7891 26.9766 94.2188 27.043 93.7656 27.1602C93.3203 27.2695 92.9492 27.4023 92.6523 27.5586C92.3555 27.707 92.1133 27.8594 91.9258 28.0156C91.7383 28.1719 91.5703 28.2969 91.4219 28.3906V38H88.4219V28.3203C88.3906 28.0703 88.3164 27.8594 88.1992 27.6875C88.0898 27.5156 87.9727 27.375 87.8477 27.2656C87.707 27.1328 87.5469 27.0234 87.3672 26.9375L88.6094 24.6406C88.8984 24.7422 89.1836 24.8789 89.4648 25.0508C89.707 25.1992 89.9609 25.3906 90.2266 25.625C90.5 25.8516 90.7422 26.1328 90.9531 26.4688C91.3516 26.1953 91.7188 25.9648 92.0547 25.7773C92.3906 25.582 92.7148 25.418 93.0273 25.2852C93.3477 25.1523 93.6758 25.0508 94.0117 24.9805C94.3555 24.9023 94.7305 24.8398 95.1367 24.793C95.5508 24.7461 96.0117 24.7148 96.5195 24.6992C97.0352 24.6758 97.6328 24.6562 98.3125 24.6406Z" fill="#FFE100"/>
</svg>
